<svg viewBox="0 0 3216.98 3368" xmlns="http://www.w3.org/2000/svg"><path d="m2877.22 760.21c8.5 24.06 17.46 47.76 27.14 71.07 9.72 23.28 20.07 46.18 31.22 68.59 5.5 11.23 11.34 22.28 17.2 33.28 2.96 5.48 6.02 10.92 9 16.35 3.03 5.34 6.08 10.65 9.22 15.87 12.47 20.94 25.79 40.84 40.21 59.44 3.63 4.64 7.27 9.24 11.02 13.75s7.6 8.93 11.49 13.33c7.79 8.8 15.99 17.33 24.55 25.99 8.58 8.65 17.63 17.37 27.11 26.7 9.49 9.31 19.44 19.28 29.44 30.3 10.01 10.99 19.95 23.11 29.14 36.11 9.22 12.98 17.53 26.85 24.79 40.97 7.3 14.1 13.45 28.56 18.77 42.84 5.35 14.33 9.85 28.88 13.69 43.55 3.85 14.66 6.89 29.47 9.32 44.34 1.2 7.44 2.23 14.89 3.11 22.35.83 7.47 1.53 14.95 2.07 22.43.5 7.48.91 14.98 1.1 22.47.18 7.49.23 14.99.08 22.47-.13 7.49-.39 14.98-.89 22.45-.46 7.47-1.11 14.94-1.89 22.38-3.19 29.79-8.97 59.33-17.46 88.18-4.18 14.45-9.16 28.68-14.67 42.72-5.61 14.01-11.78 27.82-18.71 41.29-13.8 26.95-30.25 52.7-49.3 76.47-19.03 23.78-40.5 45.53-63.81 64.63-23.28 19.15-48.37 35.68-74.55 49.47-13.09 6.91-26.47 13.11-40.07 18.6-13.59 5.5-27.4 10.34-41.37 14.27l31.81-40.48c-10.31 61.4-25.14 121.25-43.26 180.02-9.08 29.38-19.04 58.46-29.9 87.19-10.87 28.73-22.83 57.04-35.63 84.96-12.7 27.95-26.16 55.57-40.61 82.66-14.44 27.1-29.84 53.7-46.22 79.7-32.76 51.98-69.44 101.56-110.15 147.61-40.69 46.06-85.38 88.6-133.64 126.5-48.23 37.93-100.02 71.16-154.33 99.15-54.33 27.95-111.16 50.69-169.41 68-58.25 17.35-117.91 29.23-177.94 36.12-8.23.94-15.67-4.97-16.62-13.2-.92-7.98 4.61-15.22 12.45-16.51h.06c57.99-9.48 115.06-23.74 170.21-43.07 27.57-9.66 54.66-20.56 81.15-32.67 26.47-12.16 52.33-25.56 77.48-40.1 50.28-29.14 97.63-62.98 141.28-100.93 43.67-37.94 83.65-79.95 119.69-125.05 36.07-45.1 68.17-93.3 96.52-143.62 14.17-25.16 27.4-50.86 39.71-77s23.77-52.69 34.15-79.66c5.16-13.5 10.08-27.09 14.78-40.76 4.71-13.66 9.24-27.38 13.58-41.16 8.71-27.54 16.57-55.35 23.57-83.35s13.15-56.18 18.39-84.46c5.23-28.3 9.63-56.58 12.87-84.91 0-14.46 7.94-27.06 19.69-33.69l12.12-6.79c10.28-5.76 20.33-11.61 30.11-17.8 4.9-3.06 9.7-6.26 14.45-9.48 2.39-1.59 4.71-3.27 7.07-4.88 2.32-1.67 4.66-3.31 6.94-5.01 18.39-13.46 35.49-28.12 51.08-43.89 15.62-15.74 29.66-32.66 42.11-50.57 12.45-17.92 23.33-36.97 32.63-56.88 18.57-39.81 30.78-83.09 36.26-127.34.69-5.53 1.29-11.07 1.74-16.63.47-5.55.86-11.12 1.12-16.68.52-11.13.61-22.28.28-33.4-.37-11.12-1.2-22.19-2.45-33.19-1.28-10.99-3.05-21.88-5.24-32.64-2.2-10.75-4.94-21.33-8.08-31.71-1.6-5.2-3.28-10.28-5.07-15.22-1.82-4.93-3.72-9.75-5.75-14.46-4.06-9.43-8.66-18.34-13.9-27.11-5.25-8.77-11.28-17.37-18.16-26.31-6.88-8.92-14.68-18.13-23.04-27.89-8.37-9.73-17.27-20-26.14-30.79-8.9-10.77-17.72-22.07-26.16-33.74-8.44-11.68-16.46-23.72-23.98-35.99-15.04-24.56-27.91-49.99-39.07-75.64-2.79-6.42-5.45-12.86-8.05-19.31-2.52-6.42-5-12.8-7.41-19.23-2.34-6.45-4.78-12.86-6.95-19.36l-3.34-9.72c-1.09-3.24-2.12-6.51-3.17-9.77-16.75-52.09-28.77-105.47-35.07-159.23-1.94-16.55 9.91-31.54 26.46-33.48 14.27-1.67 27.37 6.9 31.96 19.9l.09.26z" fill="#f15a29"/><path d="m1959.8 2073.24c59.23 34.58 125.63 56.7 192.72 61.35 33.52 2.3 67.13.28 99.83-6.1 32.7-6.4 64.45-17.12 94.43-31.49 29.99-14.36 58.17-32.42 84.04-53.32 25.88-20.9 49.44-44.65 70.39-70.5 41.94-51.72 73.31-111.73 93.35-175.04l17.03 46.17c-39.07-21.36-77.39-44.9-114.13-71.83-18.36-13.48-36.31-27.82-53.63-43.29-17.31-15.47-34-32.04-49.63-50.06-15.64-17.99-30.21-37.47-43.06-58.58-12.83-21.1-23.85-43.93-32.14-68.14-4.13-12.11-7.58-24.54-10.25-37.18-2.67-12.67-4.55-25.4-5.64-38.49-1.08-13.07-1.27-26.36-.64-39.34.62-12.99 2.07-25.58 3.86-37.61 1.8-12.04 3.94-23.52 6.14-34.62 2.21-11.09 4.47-21.81 6.67-32.36 4.43-21.07 8.56-41.49 12.23-61.97 3.66-20.45 6.86-40.89 9.64-61.43l2-15.42 1.77-15.38.88-7.69.76-7.7c.49-5.13 1.04-10.26 1.49-15.4 1.79-20.55 3.12-41.12 4.05-61.69.82-20.58 1.23-41.17 1.17-61.73-.13-41.14-2.23-82.19-6.1-123.06-3.64-38.4 24.55-72.48 62.95-76.11 21.79-2.06 42.19 6.12 56.42 20.6l3.55 3.65c10.13 12.53 20.41 24.76 30.84 36.48s21.04 22.93 31.71 33.2c10.63 10.25 21.43 19.59 31.42 26.77 4.95 3.57 9.69 6.55 13.53 8.62 3.83 2.14 6.73 3.16 7.09 3.63.16.23-.35.39-1.45.78-.54.19-1.21.44-1.92.77-.35.17-.72.34-1.08.54-.36.19-.65.36-.98.59-.66.43-1.34.92-1.93 1.47-.6.49-1.1 1.1-1.45 1.53-.71.95-.74 1.47-.3 1.25.43-.25 1.28-1.19 2.24-2.72.97-1.56 2.05-3.68 3.13-6.16 2.18-4.99 4.32-11.38 6.29-18.31 3.95-13.98 7.35-30.01 10.7-46.43 3.35-16.46 6.67-33.47 10.26-50.59 3.59-17.14 7.44-34.41 11.72-51.68 4.27-17.28 9-34.49 14.11-51.52 10.23-34.08 22.09-67.56 35.55-100.29 26.86-65.47 59.98-127.9 98.1-186.48 7.17-12.98 23.5-17.69 36.48-10.52 7.02 3.88 11.61 10.43 13.23 17.68l.24 1.08 37.12 170.57c3.52 16.19-6.75 32.17-22.94 35.7-16.19 3.52-32.17-6.75-35.7-22.94-.06-.29-.14-.7-.2-.99l-31.34-171.72 49.94 8.25c-30.24 59.48-54.94 121.3-73.32 184.57-9.22 31.62-16.82 63.6-22.85 95.78-3 16.1-5.63 32.21-7.84 48.42-2.23 16.22-4.08 32.58-5.75 49.15-1.67 16.58-3.12 33.35-4.75 50.63-.82 8.64-1.69 17.42-2.73 26.43s-2.25 18.27-3.89 27.97c-1.67 9.73-3.72 19.9-7.01 31.07-1.66 5.59-3.65 11.44-6.25 17.62-2.63 6.2-5.89 12.77-10.23 19.58-4.37 6.81-9.91 13.93-16.98 20.56-3.49 3.32-7.43 6.46-11.55 9.36-4.17 2.87-8.57 5.47-13.1 7.69-2.27 1.1-4.52 2.11-6.87 3.06-2.35.94-4.74 1.81-7.14 2.56-4.8 1.52-9.66 2.66-14.42 3.45-9.55 1.58-18.65 1.76-26.97 1.17-8.3-.61-15.89-1.96-22.85-3.66-6.96-1.71-13.34-3.76-19.29-5.99-11.92-4.47-22.25-9.59-31.85-14.91-19.09-10.69-35.39-22.23-50.74-34.06-15.3-11.85-29.55-24.04-43.24-36.43-13.68-12.4-26.8-25-39.57-37.75l122.92-51.87c3.01 90.58-2.17 181.28-15.7 270.47-.84 5.58-1.77 11.14-2.66 16.7l-1.35 8.35-1.47 8.33-2.97 16.64-3.19 16.53c-4.38 22.02-9.22 44-14.52 65.76-5.29 21.75-11.08 43.33-16.82 64.2-5.71 20.87-11.36 40.99-15.3 59.39-1.96 9.22-3.52 18.03-4.48 26.56-.95 8.54-1.37 16.87-1.23 25.34.15 8.45.86 17.18 2.1 25.74 1.24 8.58 3.03 17.12 5.33 25.61 4.64 16.97 11.37 33.76 19.96 50.12 8.6 16.35 18.95 32.3 30.71 47.64 23.49 30.74 52.26 59.08 83.56 85.2 31.37 26.12 65.35 50.08 100.74 72.35l1.85 1.16c15.37 9.67 21.33 28.64 15.19 45-26.51 70.74-65.58 136.82-116.11 192.91-25.24 28.03-53.32 53.54-83.88 75.7-30.54 22.16-63.57 40.98-98.43 55.5-34.84 14.54-71.48 24.81-108.8 30.11s-75.25 5.56-112.37 1.06c-18.57-2.24-36.92-5.77-54.96-10.25-2.26-.53-4.5-1.17-6.74-1.76-2.24-.61-4.49-1.18-6.72-1.83-4.45-1.31-8.92-2.57-13.32-4.01-8.85-2.75-17.58-5.85-26.22-9.12-34.55-13.16-67.43-30.12-98.11-50.23-7.73-5.07-9.89-15.44-4.82-23.17 4.9-7.47 14.76-9.74 22.39-5.3l.08.05z" fill="#f15a29"/><g fill="#231f20"><path d="m530.31 1489.64c3.49 136.96-31.28 273.62-92.86 395.64-19.16 38-41.53 74.51-67.34 108.41-16.68 21.9-35.55 43.46-53.65 63.31-11.03 12.31-19.49 21.12-27.57 32.5-1.76 2.41-4.58 7.11-4.79 8.84-.06.02 0 .03.02.04.02 0 .02.02.01.02-.08-.01.03.05.03.09 0 .02-.01.04-.04.05 1.47 20.01 28.09 41.42 44.65 51.96 39.35 24.42 89.72 15.15 133.39 6.7 16.05-3.28 34.34-7.1 50.69-9.61 12.86-1.92 26.2-3.19 39.46-2.38 21.79 1.07 45.24 9.92 59.83 28.31 10.94 13.44 16.61 30.77 16.55 48.03.14 4.42-.3 8.49-.8 12.62-.72 5.97-2.04 11.94-3.72 17.7-2.13 7.97-5.38 15.88-8.75 23.38-8.31 18.24-19.18 35.24-30.89 51.41-3 3.89-6.42 8.52-9.48 12.37-21.45 26.63-62.9 4.11-52.73-28.11 4.68-13.82 9.35-27.15 13.08-40.61 1.4-5.4 2.91-11.12 3.97-16.51.26-1.01.61-2.92.75-3.93.33-2.34.95-5.22 1.06-7.5.11-1.69.44-3.5.43-5.15l.02-1.56.04-1.54c.06-1.31-.25-2.64-.28-3.92-.33-1.3-.59-2.65-1.02-2.96-.05-.09-.11-.2-.16-.3-.01-.03-.06 0-.08.01-.17.09-.31.12-.38.27l-.05.18c-.27 1.48.26 2.98.76 4.37 1.23 2.94 3.26 5.55 5.76 7.54 2.11 1.72 4.05 2.69 4.96 3.23.99.53.92.76.28 1.05l-.23.09c-8.07 2.29-15.09 4.39-23.83 7.54-40.14 14.36-75.41 28.62-121.48 34.83-52.06 7.2-106.84-1.46-152.16-29.81-57.91-34.47-106.46-93.99-102.59-165.16 1.98-33.72 16.59-62.82 37.51-87.83 19.89-23.76 40.54-41.87 60.79-62.54 16.81-16.94 32.32-34.22 47.08-52.76 37.33-47.61 66.83-100.89 92.87-155.49 20.43-43.28 37.74-88.13 51.98-133.91 5.92-19.13 11.58-39.23 16.44-58.66 4.64-18.44 8.82-36.88 12.74-55.55 8.07-34.58 57.81-30.43 59.73 5.32z"/><path d="m1383.28 1032.74c1.47-5.28 2.91-10.78 4.29-16.27 1.38-5.51 2.7-11.06 3.96-16.64 2.56-11.14 4.9-22.38 7.04-33.65 4.28-22.55 7.92-45.25 10.69-68.02 2.86-22.76 4.97-45.59 6.28-68.4 1.29-22.82 1.95-45.62 1.64-68.35-.6-45.45-4.35-90.62-12.16-134.75-7.81-44.1-19.3-87.23-35.46-128.2-16-41.01-36.32-79.96-60.87-115.84-12.27-17.94-25.55-35.14-39.84-51.48-7.42-8.54-14.72-16.56-22.29-24.44-7.55-7.87-15.3-15.51-23.26-22.91-63.54-59.38-139.9-103.4-221.76-123.89-40.92-10.19-83.15-15.09-125.49-14.13-42.33.9-84.69 7.28-125.93 18.41-20.62 5.55-40.93 12.42-60.8 20.38-19.88 7.94-39.32 17.01-58.17 27.12-37.65 20.26-73.09 44.59-104.32 72.61-3.99 3.42-7.68 7.1-11.5 10.66l-2.85 2.68-2.74 2.76-5.48 5.52c-1.86 1.81-3.59 3.72-5.34 5.61l-5.26 5.66c-1.77 1.87-3.41 3.89-5.13 5.82-1.69 1.97-3.42 3.86-5.09 5.89-13.45 16.05-26.35 33.52-38.88 51.82-25.11 36.62-48.67 76.5-72.44 117.03l-17.84 30.59-8.67 15.02c-2.88 4.98-5.67 9.99-8.5 14.99-11.27 20.03-22.02 40.13-32.83 60.8-5.42 10.39-10.89 20.96-16.73 31.95-5.83 10.97-12.12 22.42-19.09 33.98l-5.33 8.66-5.55 8.6c-3.88 5.88-7.78 11.44-11.72 16.85s-7.9 10.66-11.92 15.83c-2.01 2.59-4.04 5.16-6.1 7.73l-3.13 3.87-1.62 1.97-.84 1.02-.45.54c-2.33 2.7 3.06-2.87 7.62-11.79l-6.94 10.93c-12.22 15.48-25.07 30.67-38.34 45.56-6.65 7.43-13.46 14.74-20.29 21.87l-5.1 5.3-5.04 5.18-9.5 9.72-2.03 2.12-1.78 1.89-.83.88-.56.62-.54.58c-.19.2-.23.32-.36.48-.43.61-.93 1.11-1.43 1.72-.45.75-.93 1.47-1.47 2.16-1.97 3.19-3.97 7.43-5.72 12.43-.4 1.31-.82 2.61-1.27 3.91l-1.11 4.24c-.42 1.37-.69 2.93-1 4.45l-.48 2.28-.24 1.14-.18 1.21-.75 4.82c-.24 1.63-.36 3.35-.55 5.02l-.28 2.52c-.08.85-.11 1.74-.17 2.6l-.35 5.23c-.57 14.2.21 29.3 2.29 44.61 2.09 15.32 5.4 30.8 9.66 46.1l1.71 5.71c.59 1.9 1.09 3.83 1.75 5.7l1.88 5.66.94 2.83 1.02 2.8 2.02 5.62c.67 1.88 1.45 3.7 2.17 5.56.74 1.84 1.44 3.71 2.21 5.54l2.36 5.47c1.51 3.69 3.29 7.2 4.92 10.81.8 1.82 1.73 3.54 2.6 5.31l2.64 5.29 2.81 5.16c.94 1.72 1.83 3.48 2.85 5.13 1.99 3.34 3.89 6.77 5.99 9.99l3.08 4.92 3.23 4.75c2.12 3.23 4.37 6.22 6.59 9.26 4.5 5.94 9.07 11.45 13.91 16.6s9.96 9.93 15.63 14.69c5.67 4.75 11.98 9.44 18.95 14.31 6.94 4.88 14.53 9.92 22.4 15.19s15.97 10.8 24.06 16.52c16.22 11.46 32.16 23.85 47.31 36.77 15.14 12.96 29.56 26.47 43.34 40.35s26.97 28.09 39.72 42.72c12.71 14.65 24.96 29.64 36.64 45.04 11.67 15.4 22.89 31.12 33.35 47.3 9.04 13.98 5.04 32.63-8.94 41.68-12.29 7.95-28.21 5.81-38.02-4.33l-.07-.08c-25.23-26.06-51.25-50.99-78.33-74.51-13.52-11.75-27.36-23.16-41.31-34.12-13.96-10.94-28.1-21.35-42.44-31.12-14.4-9.72-28.93-18.77-44.08-27.36-15.16-8.68-30.98-16.83-48.61-26.89-8.78-5.05-17.97-10.69-27.19-17.11-9.22-6.4-18.37-13.63-26.95-21.37-8.58-7.75-16.65-15.95-24-24.36-3.62-4.21-7.25-8.43-10.59-12.74l-5.09-6.46-4.85-6.58c-3.3-4.36-6.23-8.89-9.3-13.36-1.55-2.23-2.95-4.53-4.4-6.8l-4.31-6.85-4.08-6.94c-1.34-2.32-2.76-4.62-4.01-6.98-2.54-4.71-5.18-9.39-7.52-14.18-9.67-19.06-17.99-38.7-24.87-58.91-13.57-40.53-22.25-83.03-22.18-129.09l.24-8.72c.05-1.46.08-2.9.16-4.37l.31-4.43c.23-2.96.39-5.89.71-8.89l1.07-9.02.28-2.25.37-2.29.77-4.59c.52-3.06 1.01-6.1 1.76-9.23.7-3.12 1.37-6.21 2.14-9.33.87-3.16 1.78-6.32 2.71-9.47 3.98-12.69 9.28-25.67 16.72-38.56 1.97-3.23 3.99-6.43 6.04-9.61 2.2-3.17 4.61-6.31 6.98-9.42.59-.76 1.21-1.59 1.79-2.27l1.74-2.06 1.73-2.02 1.52-1.7c1.02-1.13 2.07-2.31 2.95-3.24l2.75-2.97 9.83-10.42 9.11-9.74c5.94-6.42 11.69-12.84 17.41-19.33 11.39-13 22.38-26.43 33.2-40.18l-6.94 10.93c4.8-9.2 10.43-15.06 8.33-12.65l.26-.32.57-.7 1.2-1.47 2.45-3.06c1.64-2.06 3.28-4.15 4.9-6.25 3.24-4.2 6.4-8.43 9.43-12.62 3.02-4.19 5.92-8.34 8.58-12.35l4.1-6.34 4-6.48c5.29-8.73 10.45-18.06 15.76-28.02 5.3-9.94 10.74-20.42 16.31-31.05 5.59-10.66 11.3-21.43 17.12-32.18l8.84-16.09c3-5.33 5.96-10.7 8.99-16 3.04-5.3 6.04-10.64 9.12-15.91l9.18-15.74 18.13-30.78c12.16-20.59 24.58-41.28 37.47-62.02 12.9-20.74 26.32-41.55 40.74-62.26 14.44-20.69 29.92-41.29 47.14-61.42 2.12-2.52 4.41-5 6.6-7.5 2.24-2.48 4.39-5.02 6.71-7.44l6.91-7.3c2.31-2.43 4.6-4.88 7-7.19 9.44-9.44 19.1-18.58 29.09-27.24 19.93-17.4 40.83-33.37 62.52-48 21.68-14.64 44.16-27.92 67.29-39.85 46.26-23.86 95.1-42.61 145.69-55.26 50.56-12.71 102.83-19.39 155.35-19.37 26.26-.04 52.56 1.92 78.63 5.49l4.89.64c1.63.2 3.26.43 4.88.73l9.74 1.65 9.73 1.67c3.23.62 6.45 1.34 9.67 2l9.66 2.05c1.61.36 3.22.66 4.82 1.07l4.79 1.2c6.39 1.61 12.79 3.14 19.1 5.03 25.34 7.14 50.16 16.02 74.2 26.49 3.03 1.25 5.98 2.68 8.96 4.04l8.92 4.12 8.8 4.35c2.93 1.46 5.88 2.87 8.75 4.43 5.77 3.07 11.58 6.06 17.22 9.32 2.84 1.61 5.69 3.19 8.51 4.83l8.38 5.02c44.56 26.99 85.31 59.36 121.59 95.73 9.08 9.08 17.9 18.42 26.44 27.97 8.53 9.53 16.82 19.38 24.59 29.05 16.17 20.02 31.17 40.99 44.8 62.77 13.63 21.79 25.93 44.35 36.84 67.49 10.89 23.15 20.42 46.86 28.6 70.92 8.14 24.08 14.96 48.51 20.44 73.14 5.49 24.62 9.79 49.41 12.86 74.26 3.08 24.85 4.91 49.75 5.81 74.59.95 24.85.66 49.64-.46 74.33-.11 3.09-.3 6.17-.48 9.25l-.54 9.24c-.45 6.15-.83 12.31-1.38 18.44-.99 12.28-2.27 24.53-3.74 36.73-2.97 24.41-6.76 48.67-11.38 72.74-4.66 24.06-10.1 47.94-16.42 71.61-3.17 11.83-6.54 23.62-10.18 35.36-1.82 5.87-3.71 11.73-5.69 17.6-1.97 5.88-4.01 11.71-6.24 17.7-5.79 15.54-23.08 23.43-38.62 17.64-14.69-5.48-22.55-21.24-18.46-36.07l.1-.35z"/><path d="m1449.84 1175.65c24.9 18.91 46.45 41.18 67.14 64.31 60.5 68.06 104.49 147.85 151.84 224.99 49.94 83.46 98.01 168.65 135.28 258.92 15.95 38.5 29 78.03 40.85 117.75 18.86 64.34 32.94 130.3 39.79 197.02 2.72 35.77-46.4 46.36-58.65 12.68-9.65-27.99-19.33-55.66-29.78-83.26-13.76-36.46-28.62-72.59-44.48-108.18-19.71-44.3-40.6-87.52-64.38-129.66-14.1-25.24-29.15-50.92-44.16-75.63-23.77-39.47-53.52-86.27-78.47-125.49-52.89-84.98-111.36-167.2-146.93-261.62-7.32-19.43-14.06-38.92-18.54-59.46-6.03-28.75 26.88-49.87 50.48-32.37z"/><path d="m1276.96 3230.11c12.9-3.97 59.19-12.62 63.8-22.92 0-.05-.04-.1-.06-.15l-.13-.24c-.04-.07-.22-.12-.32-.17-.14-.04-.17-.07-.4-.08-.4-.01-.67.05-1.24.22-2.19.77-4.02 2.36-5.64 4.1-3.73 3.91-5.72 10.3-6.33 15.15-.09.16-.1.47-.2.56-.06.07-.08.15-.12.19h-.17c-.27-.09-.59-.47-1.09-1.18-5.92-9.45-12.2-18.14-18.52-27.66-16.47-24.53-31.89-50.82-37.94-80.9-5.52-26.67-1.56-55.61 12.4-79.33 14.87-25.86 40.49-43.02 66.59-52.63 28.21-10.45 57.11-14.7 85.63-18.77 55.85-7.41 115.19-14.16 168.05-29.28 47.77-13.27 93.61-33.72 135.46-60.43l11.56-7.45 11.36-7.85 2.85-1.96c4.47-3.28 9.56-7.13 13.93-10.34 18.46-14.01 36.62-29.68 53.52-45.54 15.63-14.83 30.62-30.18 45.45-46.24 24.74-25.61 65.29 3.72 48.48 35.3-15.4 27.3-33.43 53.84-53.21 78.38-13.16 16.42-27.93 32.97-42.91 47.72-15.12 14.99-31.87 29.98-48.75 42.93-7.09 5.7-18.79 14.11-26.4 19.42-1.71 1.23-5.04 3.48-6.82 4.59-5.15 3.31-12.22 7.88-17.35 11.09-4.81 2.76-16.63 9.65-21.48 12.35-6.74 3.5-15.33 7.91-22.1 11.35-16.09 7.76-32.66 14.77-49.38 20.93-50.08 18.57-102.05 29.7-154.3 38.72-16.05 2.82-41.32 7.08-56.7 10.36-14.05 3.16-26.89 5.72-38.48 11.84-1.19.71-1.43 1.1-.92.72 1.73-1.2 4.06-5.28 4.5-7.78.36-1.37.32-2.53.35-2.66-.03-.09.03 0 0 .02.02.05.04.11.04.16 1.34 5.54 4.29 11.21 7.47 17.03 15.5 27.72 34.51 55.03 41.48 86.99 9.01 38.83-5.36 78.8-41.19 98.82-29.44 16.48-65.59 14.72-95.97 6.22-11.2-3.12-21.76-7.02-31.85-12.02-26.8-13.51-21.83-52.84 7.06-59.58z"/><path d="m586.53 3137.67c-27.23 20.41-55.79 40.62-76.44 66.9-2.68 3.56-5.82 8.52-6.16 11.8.06.25.26.17.5-.33.23-.49.48-1.43.55-2.66.11-2.64-.39-5.45-1.67-7.75-.07-.3-.21-.6-.39-.85-.16-.16-.06-.21-.11-.3-.02-.08-.05-.15-.09-.22 0-.03-.08-.07-.04-.07.21-.12.76.15 1.07.32 5.15 2.4 10.74 4.25 16.21 5.8 22.73 6.01 47.5 8.74 71.28 11.08 198 16.93 400.85 12.51 599.55 20.05 34.75 2.37 39.52 50.89 5.53 59.75-14.05 3.3-28.16 6.17-42.31 8.93-13.47 2.39-29.2 5.23-42.57 7.26-142.43 21.87-287.59 23.97-431.06 11.74-38.91-3.41-77.58-7.35-116.17-14.16-24.66-4.44-49.45-9.81-73.42-18.83-22.7-8.61-45.25-21.35-58.81-42.15-15.89-24.21-14.49-53.85-.03-77.99 16.84-27.98 44.37-47.12 71.41-63.43 17.66-10.38 35.47-19.26 53.57-27.08 33.62-13.46 58.18 30.61 29.6 52.19z"/><path d="m670.08 2399.28c-43.66 52.72-81.93 110.21-105.4 174.56-5.55 14.95-10.53 30.91-14.34 46.38-8.84 35.22-13 71.76-11.68 108.07 2.8 85.4 33.35 161.72 76.72 234.38 3.78 6.45 7.75 12.9 11.59 19.55 8.6 14.82 3.56 33.8-11.26 42.4-9.61 5.58-21.03 5.39-30.17.54-7.32-3.9-14.32-8.33-21.19-12.98-34.7-23.75-64.47-54.43-88.2-89.14-52.5-76.39-72.18-170.34-58.98-261.81 6.53-46.96 21.46-92.72 43.43-134.65 23.18-44.56 54.8-85.16 92.02-118.77 24.5-21.86 51.33-41 80.5-55.8 30.16-14.61 58.29 21.8 36.96 47.27z"/><path d="m1864.77 2963.99c22.79 20.78 42.02 44.89 56.1 72.82 3.93 7.47 7.13 15.46 10.1 23.34 2.06 6.44 4.47 13.81 5.76 20.48 12.55 55.45-8.01 109.43-60.01 135.39-28.96 14.69-62.63 18.82-94.08 22.02-82.84 7.98-206.03 21.07-287.92 28.45-35.82 2.28-45.79-46.94-11.95-58.79 80.37-25.8 163.48-47.52 245.46-67.63 27.48-6.84 54.83-14.58 81.2-23.32 5.07-1.71 10.76-3.74 15.5-5.84 1.41-.55 1.89-.95 2.84-1.16.14 0 .15-.02.2.09l.05.07s-.02.05-.02.07c.03.34-.15.84.26 1.01.27-.11.49-.1.77-.08.06 0 .17.05.22-.03.11-.13.32-.15.5-.34.54-.64.78-.94 1.19-1.77l.36-.57.26-.78c.66-1.42.97-3.03 1.39-4.56.42-1.46.44-3.18.78-4.7.32-2.09.26-4.72.5-6.86-.02-1.78-.12-4.35-.13-6.17-.04-3.85-.65-7.8-.9-11.69-.23-1.31-.65-4.04-.85-5.35-.14-.9-.66-4.49-.78-5.43-.64-3.11-1.3-6.22-1.91-9.37l-.76-3.81-.97-3.86c-1.17-4.42-2.67-11.42-4.06-15.76-2.9-11.02-6.52-21.98-9.39-33.09-9.38-30.66 26.41-53.67 50.28-32.74z"/></g></svg>