<svg viewBox="0 0 3217.29 3057.54" xmlns="http://www.w3.org/2000/svg"><g transform="translate(-476.93 -503.19)"><g fill="#231f20"><path d="m898.18 2208c-41.71-28.81-80.8-61.72-117.37-97.39a1010.33 1010.33 0 0 1 -101.47-115.66c-15.57-20.56-30.14-41.91-44.11-63.71l-5.23-8.24-2.6-4.1-2.51-4.16-10-16.69c-3.25-5.6-6.41-11.27-9.62-16.92-1.58-2.83-3.23-5.64-4.76-8.5l-4.51-8.63a1020.62 1020.62 0 0 1 -62.85-143.15c-2.13-6.18-4.16-12.39-6.23-18.6l-3.12-9.25c-1-3.11-1.91-6.26-2.87-9.39l-5.63-18.81c-1-3.13-1.77-6.31-2.64-9.46l-2.56-9.49q-10.07-38-17.18-76.78a996.77 996.77 0 0 1 -15.77-156.69 985 985 0 0 1 9.25-157.14c1-6.49 1.84-13 3-19.46l1.6-9.78 1.74-9.68c1.12-6.46 2.46-12.89 3.72-19.32.65-3.21 1.36-6.42 2-9.62s1.37-6.41 2.12-9.6c2.85-12.8 6.12-25.5 9.56-38.15s7.19-25.2 11.34-37.61l2.52-7.54a59 59 0 0 1 65.19-39.57c6.33-1.94 12.32-3.48 18.11-5s11.36-3.05 16.75-4.59 10.62-3.06 15.71-4.65 10-3.27 14.87-5l3.61-1.34 1.81-.63 1.77-.71 3.57-1.34 3.48-1.46c4.68-1.89 9.07-4.17 13.45-6.46l3.2-1.87c1.05-.63 2.16-1.17 3.18-1.89 2.06-1.37 4.2-2.6 6.2-4.11l3.08-2.14 3-2.31 1.51-1.13 1.48-1.24 3-2.45c3.92-3.44 7.85-7 11.67-11s7.65-8.17 11.44-12.6c1.87-2.33 3.79-4.52 5.65-7l2.82-3.61 2.8-3.76c.94-1.23 1.87-2.53 2.81-3.84l2.84-3.78 2.8-4.05 1.4-2 1.4-2.1 2.8-4.2 2.82-4.33 1.41-2.17 1.41-2.23 2.83-4.47c3.81-6.1 7.64-12.26 11.58-18.78l12.14-20c4.17-6.83 8.59-14 13.19-21.17s9.57-14.72 14.85-22.25l8.2-11.25 4.13-5.56 2.07-2.78 2.18-2.69 8.79-10.69 4.4-5.33 4.6-5.12 9.23-10.21 2.31-2.54 2.4-2.44 4.81-4.88 9.66-9.7 10-9.26c6.59-6.28 13.55-12 20.42-17.86 3.41-3 7-5.71 10.5-8.49l10.61-8.29c3.59-2.66 7.22-5.26 10.83-7.88s7.2-5.3 10.91-7.72c7.37-4.95 14.69-10 22.23-14.59 3.75-2.33 7.48-4.69 11.25-7l11.39-6.63 5.69-3.31 5.76-3.15 11.53-6.25c3.87-2 7.77-3.95 11.64-5.93s7.75-4 11.68-5.79l11.75-5.58c3.92-1.84 7.89-3.53 11.83-5.3 7.88-3.57 15.85-6.78 23.79-10.12 15.95-6.39 32-12.4 48.18-17.85s32.46-10.46 48.84-15 32.88-8.66 49.51-12.34c8.33-1.81 16.67-3.58 25.06-5.16 4.19-.81 8.4-1.56 12.58-2.3l6.19-1.07 3-.51 3.26-.51c17.5-2.87 35.14-4.93 52.82-6.3a655 655 0 0 1 106 .61 706.63 706.63 0 0 1 103.74 17 797.67 797.67 0 0 1 99.26 30.92 911.92 911.92 0 0 1 93.82 42.25 1016.89 1016.89 0 0 1 88.26 51.67q21.39 14 42.17 29.09 10.38 7.56 20.65 15.39c6.81 5.24 13.64 10.62 20.31 16l-113.39-1.46a1614 1614 0 0 1 149.52-98.11 1419.49 1419.49 0 0 1 159.8-79.46c6.87-2.83 13.79-5.57 20.68-8.36l10.34-4.15 5.17-2.06 5.23-1.94c14-5.12 27.8-10.47 41.93-15.08l10.55-3.57 5.27-1.78 2.63-.89 2.66-.83 21.26-6.62c7.05-2.28 14.22-4.23 21.34-6.27l10.7-3 5.35-1.51 5.38-1.4c28.61-7.76 57.59-14.13 86.55-19.9 14.48-2.81 29-5.33 43.45-7.7s29-4.49 43.45-6.42q43.44-5.85 86.94-9.41c29-2.47 58-4 87.15-5s58.28-.95 87.55 0q21.95.7 44 2.25c14.69 1.06 29.42 2.42 44.19 4.17s29.6 3.9 44.48 6.6 29.85 5.89 44.93 10a352.21 352.21 0 0 1 45.71 15.46 233.75 233.75 0 0 1 23.31 11.3 168.48 168.48 0 0 1 23.65 15.8 117.2 117.2 0 0 1 22.71 23.92c.86 1.26 1.7 2.53 2.54 3.81l1.23 1.93 1.17 2.08a81.34 81.34 0 0 1 4.31 8.61q1 2.25 1.88 4.53c.56 1.56 1.07 3.16 1.57 4.75s1 3.18 1.37 4.81.73 3.27 1 4.91a89.11 89.11 0 0 1 1.3 19.4 98 98 0 0 1 -2.59 17.69 109.73 109.73 0 0 1 -5.08 15.36c-.49 1.19-1 2.33-1.53 3.48s-1.05 2.3-1.6 3.38l-1.66 3.27-1.75 3.13a148.3 148.3 0 0 1 -15.34 22 199.69 199.69 0 0 1 -17 17.83 228 228 0 0 1 -18 15.05 219.31 219.31 0 0 1 -18.94 12.81 26.79 26.79 0 0 1 -36-37.94l.39-.57c7.63-11.28 15.26-22 21.72-32.58 1.67-2.62 3.18-5.25 4.67-7.83.76-1.29 1.43-2.58 2.15-3.85l2-3.81a105.86 105.86 0 0 0 6.13-14.26 56.06 56.06 0 0 0 1.69-6.13 35.51 35.51 0 0 0 .62-4.91 15.23 15.23 0 0 0 -.27-3.23 6.08 6.08 0 0 0 -.68-1.54.72.72 0 0 1 -.19-.21c0-.08-.18-.13-.23-.21a.66.66 0 0 1 -.15-.22 1.31 1.31 0 0 1 -.3-.27c-.07-.18-.42-.42-.63-.69a1.43 1.43 0 0 1 -.14-.2l-.27-.23a5.75 5.75 0 0 1 -.49-.5 41.9 41.9 0 0 0 -7.18-5.58 96.26 96.26 0 0 0 -12.08-6.45 151.18 151.18 0 0 0 -15.16-5.77l-4.08-1.3-4.22-1.22c-1.38-.43-2.83-.81-4.28-1.19s-2.87-.77-4.34-1.14c-3-.68-5.87-1.45-8.91-2.06l-4.52-1-4.6-.88c-6.12-1.19-12.4-2.2-18.69-3.18l-9.55-1.31c-3.21-.38-6.4-.81-9.64-1.15-12.9-1.43-26-2.52-39.22-3.26s-26.53-1.22-39.91-1.41-26.8-.19-40.27.09q-40.4.88-81 4.19a1398.12 1398.12 0 0 0 -160.88 22.52q-39.72 8-78.48 18.5l-9.64 2.67-9.59 2.83c-6.38 1.92-12.8 3.69-19.12 5.79l-19 6.1-18.86 6.52-4.71 1.63-4.67 1.74-9.34 3.49c-6.22 2.34-12.46 4.59-18.6 7.15l-18.47 7.45-2.31.93-2.28 1-4.57 2-9.12 4c-12.23 5.15-24.17 11-36.18 16.59l-4.5 2.11c-1.5.72-3 1.49-4.45 2.23l-8.88 4.49-17.74 9c-93.83 49.51-180.49 111.74-258.11 183.62a81.59 81.59 0 0 1 -104.81 5.07l-8.57-6.53c-5.09-4.84-10.17-9.51-15.39-14.16s-10.49-9.23-15.88-13.74c-10.76-9-21.86-17.74-33.17-26.2a757.14 757.14 0 0 0 -70.57-46.67c-48.62-28.36-100.13-50.88-153-65.47s-107.18-21.07-160.72-17.95c-3.35.24-6.7.38-10 .67l-10 .88-10 1.14c-3.33.42-6.65.91-10 1.36l-2.51.35-2.76.42-5.33.83c-3.51.57-7 1.13-10.44 1.75-6.93 1.19-13.85 2.55-20.77 3.93q-20.74 4.31-41.26 9.85t-40.49 12.37c-53.31 18.1-103.56 43-146.79 74.49-2.78 1.89-5.34 4-8 6l-7.89 6.09-7.6 6.35c-2.54 2.11-5.11 4.18-7.49 6.43-4.83 4.42-9.82 8.69-14.34 13.34l-7 6.82-6.6 7.08-3.3 3.53-1.65 1.76-1.55 1.84-6.23 7.33-3.12 3.65-2.88 3.79-5.85 7.54-1.47 1.88-1.35 1.95-2.71 3.9-5.47 7.76c-3.5 5.34-7.07 10.89-10.7 16.87s-7.31 12.19-11.12 18.73l-11.79 20.12c-4 6.86-8.29 14-12.65 21.17l-3.37 5.43-1.69 2.71-1.83 2.77-3.5 5.49-3.65 5.54a477.11 477.11 0 0 1 -33.22 44.69 349.62 349.62 0 0 1 -42.72 42.62 302.81 302.81 0 0 1 -52.65 35.08 299.08 299.08 0 0 1 -29 13.06l-7.38 2.82c-2.48.88-5 1.69-7.46 2.51l-3.74 1.21-3.78 1.08c-2.52.7-5 1.41-7.57 2a242.15 242.15 0 0 1 -30.65 5.52 228.19 228.19 0 0 1 -30.58 1.38 205.57 205.57 0 0 1 -29.92-2.87 165.15 165.15 0 0 1 -28.55-7.33l67.71-47.11c-4.67 22.73-9.05 45.42-12.77 68.22s-6.88 45.67-9.44 68.58a1200.54 1200.54 0 0 0 -7.23 138 1128.73 1128.73 0 0 0 9.25 137.79c3 22.87 6.75 45.65 11.13 68.35 1.16 5.67 2.2 11.36 3.45 17l3.76 16.94c.65 2.82 1.21 5.67 1.92 8.47l2.12 8.42c1.41 5.62 2.76 11.25 4.21 16.87a1067.92 1067.92 0 0 0 44.51 132.2l3.32 8.11c1.11 2.71 2.31 5.37 3.47 8 2.34 5.36 4.63 10.75 7 16.1l7.36 16 1.84 4 1.92 3.95 3.86 7.91c10.32 21.09 21.23 42 33 62.47a1192.55 1192.55 0 0 0 77.82 119.33q10.71 14.37 21.8 28.53l5.57 7.05 5.67 7c3.74 4.7 7.58 9.31 11.43 13.93 1.91 2.33 3.87 4.61 5.81 6.9l5.84 6.89c3.94 4.55 7.89 9.12 11.88 13.63q12 13.59 24.33 26.95l.12.13a23.08 23.08 0 0 1 -30.1 34.63z"/><path d="m974.14 2332.83c5.29 18.49 9.68 37 14 55.52s8.18 37 11.9 55.56 7.25 37.06 10.62 55.58 6.55 37.06 9.61 55.6c12.26 74.11 22.2 148.45 31.19 222.33l13.28 110 3.44 27c1.23 8.9 2.37 17.76 3.69 26.48l2 13.18 2.21 13.5 1.06 6.77 1.14 6.75 2.23 13.53 9.37 54.17 9.87 54.37 10.13 54.72c3.33 18.34 6.79 36.72 9.71 55.44v.21a28.61 28.61 0 0 1 -52.44 19.73c-10.46-16.5-19.81-33.54-28.73-50.82s-17.16-34.9-24.88-52.73-14.93-35.9-21.67-54.15-12.92-36.7-18.66-55.3c-1.42-4.65-2.83-9.31-4.19-14l-2.06-7-2-7-3.87-14.09c-1.26-4.75-2.53-9.6-3.7-14.48-2.38-9.76-4.56-19.43-6.57-29.09l-2.82-14.42-2.68-14.36c-6.91-38.2-12.2-76.11-16.46-114s-7.48-75.75-9.86-113.63-3.9-75.78-4.39-113.77 0-76 1.67-114.08c.87-19 2-38.08 3.6-57.14s3.49-38.13 6.3-57.23a24.61 24.61 0 0 1 48-3.21z"/><path d="m1119.23 3321.91a358.57 358.57 0 0 0 -57.93 18.37 276.11 276.11 0 0 0 -26.32 12.79 249.31 249.31 0 0 0 -24 15.23 213.82 213.82 0 0 0 -21.32 17.59c-1.65 1.58-3.31 3.12-4.88 4.76s-3.21 3.19-4.71 4.87-3.08 3.3-4.52 5l-4.77 5.49c-3.45 4-6.61 7.82-9.64 11.58s-5.83 7.48-8.36 11.09a115.41 115.41 0 0 0 -6.61 10.3c-.47.81-.83 1.56-1.25 2.33l-.53 1.09c-.18.37-.35.72-.49 1l-.45 1-.35.89-.18.44-.11.38-.24.74c-.22.86-.25 1.44-.11 1.46s.59-.76.84-2.46a9 9 0 0 0 .15-1.47 11.29 11.29 0 0 0 0-1.93c0-.29 0-.73 0-1.11a11.79 11.79 0 0 0 -.12-1.18c-.14-.75-.22-1.63-.42-2.44a27.15 27.15 0 0 0 -3.08-7.9c-.12-.22-.25-.43-.39-.64s-.32-.43-.38-.57a5.85 5.85 0 0 0 -.61-.89c-.19-.26-.25-.42-.41-.6s-.17-.18-.21-.25a.69.69 0 0 0 -.07-.15c-.38-.44 0-.32.49-.13 1.22.5 3.76 1.56 6.87 2.63.83.26 1.56.55 2.45.81l2.64.82 2.85.79c.92.27 2 .51 3 .77l1.5.38 1.58.36 3.17.74c2.19.46 4.33.95 6.62 1.38 4.47.9 9.19 1.67 13.93 2.42l7.23 1.08 7.36 1c19.79 2.47 40.54 4.15 61.49 5.43 10.48.64 21.06 1.19 31.67 1.64s21.27.88 32 1.17c42.8 1.32 86.08 1.87 129.51 2.33s87.07.73 130.81 1.33l32.83.45 32.88.61c21.93.45 43.89 1 65.88 1.67s44 1.57 66.07 2.63 44.14 2.31 66.29 4.29h.06a26.3 26.3 0 0 1 3.44 51.86c-21.79 4.9-43.64 9-65.54 12.8s-43.84 7.22-65.82 10.34q-65.94 9.26-132.33 15.08t-133.3 8.1c-44.63 1.45-89.44 1.69-134.66 0-11.3-.46-22.65-1-34-1.69s-22.78-1.54-34.25-2.63c-22.94-2.15-46-4.91-69.76-9.29l-8.93-1.71-9-1.9c-6.06-1.38-12.13-2.81-18.36-4.52-3.07-.8-6.25-1.75-9.38-2.66-1.59-.47-3.2-1-4.79-1.51l-2.39-.77-2.44-.83c-1.64-.58-3.22-1.1-4.89-1.73l-5-1.87-5.09-2.07c-1.69-.69-3.48-1.52-5.21-2.28a147.8 147.8 0 0 1 -22.41-12.53 107.14 107.14 0 0 1 -12.61-10.17l-1.6-1.52c-.55-.54-1.12-1.14-1.67-1.72-1.11-1.18-2.17-2.29-3.27-3.58s-2.2-2.69-3.26-4.06-2.16-3-3.18-4.54a75.14 75.14 0 0 1 -10-22.8 62.9 62.9 0 0 1 -1.29-6.48c-.16-1.07-.29-2.14-.42-3.22s-.24-2.18-.27-3.16c-.1-2-.15-4-.14-6.05s.18-3.74.33-5.6a85.5 85.5 0 0 1 4-18.62 109.54 109.54 0 0 1 5.89-13.93l1.58-3 .8-1.47.8-1.37 1.62-2.74 1.63-2.57c1.09-1.75 2.19-3.28 3.3-4.91s2.21-3.1 3.32-4.54c4.46-5.85 8.94-11.09 13.43-15.94s9-9.34 13.55-13.61 9.05-8.3 13.39-12.09l3.24-2.82 3.74-3.18c2.48-2.13 5.06-4.15 7.63-6.15s5.2-4 7.83-5.87 5.34-3.72 8-5.54a260.5 260.5 0 0 1 33.66-18.92 276.55 276.55 0 0 1 71.55-22.07 280.76 280.76 0 0 1 72.22-2.77 23 23 0 0 1 3.1 45.27z"/><path d="m1791.23 3449.61c7.43-.76 14.85-1.41 22.26-2.1l11.11-1c3.7-.27 7.39-.75 11.09-1.12q11.08-1.2 22.14-2.29c1.84-.19 3.69-.36 5.53-.58l5.52-.66 11-1.3 11-1.29 5.5-.63 5.5-.73 22-2.92 5.48-.72 5.48-.82 10.94-1.64c7.29-1.1 14.58-2.05 21.84-3.33l21.78-3.57c7.25-1.21 14.47-2.63 21.7-3.88l10.83-1.94 10.8-2.13 10.79-2.12c3.6-.69 7.2-1.37 10.78-2.16l21.49-4.55 21.4-4.83c7.14-1.55 14.22-3.37 21.32-5.08l10.64-2.56 10.6-2.73c7.06-1.81 14.13-3.59 21.14-5.57s14.08-3.74 21.07-5.81q21-6 41.82-12.44c6.93-2.2 13.89-4.3 20.74-6.66l20.64-6.76c6.83-2.31 13.57-4.79 20.37-7.13 3.39-1.19 6.83-2.3 10.16-3.56l10-3.72c26.75-9.87 52.91-20.36 77.64-32l9.24-4.37c1.56-.71 3-1.48 4.53-2.25l4.48-2.3 4.49-2.27c1.5-.76 3-1.5 4.44-2.32l8.68-4.77a359.5 359.5 0 0 0 32.56-20.38 270.89 270.89 0 0 0 29.17-23.76l7.13-6.73 3.58-3.36 3.4-3.53c4.53-4.72 9.23-9.28 13.47-14.27l6.55-7.32c2.1-2.51 4.14-5.08 6.23-7.61l3.12-3.8 1.56-1.91 1.47-2 5.94-7.88c1-1.32 2-2.59 3-4l2.83-4 5.68-8.12 5.39-8.36 2.71-4.17 2.57-4.29 5.15-8.58 4.94-8.77c.81-1.47 1.66-2.91 2.46-4.39l2.35-4.49c1.54-3 3.2-6 4.71-9l4.53-9.16c1.52-3 2.92-6.22 4.41-9.31l2.19-4.68 2.13-4.77c1.41-3.18 2.86-6.32 4.22-9.6s2.8-6.43 4.18-9.76l4.13-10 4.12-10.15 3.82-9.66c.63-1.61 1.3-3.21 1.9-4.83l1.78-4.88c1.2-3.25 2.43-6.49 3.61-9.76 2.21-6.57 4.58-13.1 6.62-19.74a677.08 677.08 0 0 0 20.68-81.17c2.69-13.79 4.76-27.72 6.64-41.73s3.32-28.11 4.57-42.29c2.5-28.38 3.73-57.09 4-86.13q.21-21.78-.25-43.84c-.27-14.71-.82-29.49-1.18-44.5v-.29a19.71 19.71 0 0 1 37.7-8.52c12.84 28.66 22.33 58.76 29.62 89.5a585.73 585.73 0 0 1 14.16 94.11c1.08 15.92 1.65 31.92 1.43 47.95 0 4-.16 8-.25 12l-.18 6-.28 6c-.22 4-.37 8-.64 12l-.86 12a689 689 0 0 1 -14.59 95.85l-1.33 5.94c-.44 2-1 3.94-1.46 5.91l-3 11.82c-1.05 3.93-2.17 7.84-3.26 11.76l-1.66 5.87c-.57 2-1.2 3.89-1.79 5.83l-3.63 11.66c-1.2 3.79-2.39 7.37-3.61 11.06l-3.78 11.18c-1.26 3.73-2.64 7.53-4 11.29-5.49 15.1-11.46 30.34-18.21 45.43-1.66 3.78-3.46 7.53-5.22 11.29l-2.65 5.63c-.91 1.87-1.87 3.72-2.81 5.59l-5.67 11.16-6.08 11a502.25 502.25 0 0 1 -58 83.13 489.57 489.57 0 0 1 -35.17 37c-3 3-6.24 5.88-9.43 8.8s-6.63 5.79-10 8.67-6.86 5.63-10.33 8.39-7 5.38-10.56 8a478.83 478.83 0 0 1 -43.65 28l-11.11 6.11c-1.85 1-3.71 2-5.57 2.91l-5.58 2.83-5.59 2.81c-1.86.94-3.73 1.87-5.6 2.72l-11.22 5.19a758.61 758.61 0 0 1 -90.4 34.1l-11.36 3.48c-3.79 1.17-7.59 2.14-11.38 3.22l-11.39 3.12c-3.8 1-7.6 2.11-11.39 3.05l-22.79 5.63c-7.59 1.89-15.22 3.51-22.83 5.23q-22.85 5.06-45.83 9.28c-7.64 1.5-15.34 2.74-23 4.09s-15.36 2.51-23.05 3.7l-11.52 1.77-11.56 1.59c-7.7 1-15.39 2.12-23.11 2.95s-15.42 1.84-23.14 2.64l-23.17 2.17c-3.85.39-7.72.67-11.58 1l-11.6.85-11.58.83-11.6.62-11.59.6c-3.87.16-7.72.42-11.59.51l-23.18.68c-7.72.27-15.45.2-23.17.28l-11.57.05h-5.79l-5.78-.1c-15.43-.25-30.84-.51-46.22-1.32l-11.53-.53-5.77-.27c-1.92-.1-3.84-.26-5.76-.38q-11.51-.79-23-1.67c-7.66-.52-15.31-1.29-23-2.06s-15.28-1.56-22.9-2.43a25.57 25.57 0 0 1 .27-50.85z"/><path d="m2248.11 1898.39c-7.81 6.26-15.7 12.32-23.53 18.44l-23.47 18.26c-3.91 3-7.75 6.14-11.67 9.13l-11.61 9.17c-7.71 6.14-15.46 12.18-23.06 18.4-30.59 24.6-60.44 49.72-89.12 75.61s-56.13 52.69-81.55 80.67c-12.69 14-24.88 28.27-36.35 42.92l-8.48 11c-2.77 3.69-5.37 7.25-7.53 10.45-1.07 1.59-2 3.08-2.82 4.35s-1.32 2.3-1.53 2.75c-.07.17-.12.28 0-.06v-.1l.08-.2.14-.44c.07-.2.13-.41.19-.62s.16-.6.23-.9a27.83 27.83 0 0 0 .65-6.92c0-.43 0-.83-.07-1.29s-.07-1-.13-1.53-.13-1-.21-1.55-.2-1.16-.32-1.74a37.73 37.73 0 0 0 -1-3.66 36.32 36.32 0 0 0 -1.54-3.85 33.11 33.11 0 0 0 -2.06-3.78 36.11 36.11 0 0 0 -5.22-6.49c-.45-.44-.91-.88-1.39-1.29s-1-.81-1.39-1.15a31.47 31.47 0 0 0 -8.86-5c-.47-.18-1-.34-1.45-.47s-.77-.22-1.17-.31c-.6-.16-1.23-.26-1.58-.32l-.53-.07h-.39c-.13 0-.34 0-.33 0a11.14 11.14 0 0 0 1.71-.08c1.12-.1 2.58-.29 4.19-.56 3.24-.51 7.08-1.33 11.06-2.32s8.17-2.18 12.42-3.43c8.54-2.51 17.34-5.48 26.22-8.59s17.83-6.46 26.84-9.85 18-7 27.07-10.54 18.12-7.24 27.19-11c18.15-7.39 36.34-15 54.59-22.53 36.47-15.2 73.12-30.5 110-45.48l27.76-11.16c9.29-3.65 18.54-7.39 27.89-11 18.64-7.24 37.36-14.38 56.37-21a16.87 16.87 0 0 1 15.65 29.64c-16.29 11.94-32.94 23.25-49.73 34.32-8.37 5.59-16.85 11-25.31 16.41s-17 10.69-25.55 16q-25.68 15.84-51.82 30.9t-52.8 29.43q-26.66 14.36-54 27.83c-9.12 4.48-18.28 8.92-27.55 13.21s-18.62 8.53-28.09 12.63-19.09 8.06-28.9 11.91-19.85 7.44-30.36 10.85c-5.27 1.69-10.67 3.28-16.33 4.79s-11.57 2.9-18.17 4.06c-3.3.56-6.78 1.06-10.63 1.43a98.73 98.73 0 0 1 -13.23.4c-1.24 0-2.69-.14-4.06-.26l-2.25-.24-1.14-.15-1.24-.18a63.13 63.13 0 0 1 -11.45-2.89 54.65 54.65 0 0 1 -15.42-8.47c-.67-.51-1.4-1.12-2.11-1.75s-1.4-1.26-2.08-1.92a54.15 54.15 0 0 1 -4-4.38 55.41 55.41 0 0 1 -3.57-5 50.77 50.77 0 0 1 -6.66-16.47c-.19-.88-.36-1.77-.51-2.66s-.23-1.64-.33-2.47-.16-1.64-.22-2.46-.07-1.49-.09-2.23a58 58 0 0 1 1.47-14.33c.21-.91.44-1.82.67-2.71l.72-2.42c.25-.83.48-1.47.73-2.22l.38-1.07.38-1c1-2.68 2-4.84 3-6.91 2-4 3.9-7.33 5.74-10.32s3.63-5.64 5.4-8.14c3.52-5 6.9-9.42 10.18-13.65l10-12.49q20.34-24.62 42.71-46.85a822.66 822.66 0 0 1 94.87-80.83 990.37 990.37 0 0 1 103.5-66.3c17.84-9.9 35.86-19.37 54.21-28.15s36.88-17.12 55.83-24.52a16.17 16.17 0 0 1 16 27.66z"/><path d="m2390.37 2039.88a88.82 88.82 0 0 1 11.77 4.85c3.68 1.8 7.2 3.74 10.59 5.79a166.37 166.37 0 0 1 18.94 13.4 208.13 208.13 0 0 1 55 70.4 169.25 169.25 0 0 1 8.51 21.82c1.18 3.83 2.25 7.75 3.11 11.84a87.78 87.78 0 0 1 1.94 12.77 16.54 16.54 0 0 1 -15.35 17.66 16.93 16.93 0 0 1 -5.76-.62 87.31 87.31 0 0 1 -12.08-4.6c-3.81-1.7-7.41-3.57-10.91-5.53a167.64 167.64 0 0 1 -19.53-12.92 207.93 207.93 0 0 1 -57.22-68.59 165.08 165.08 0 0 1 -9.1-21.34c-1.29-3.75-2.44-7.6-3.44-11.58a90.2 90.2 0 0 1 -2.25-12.53 19.89 19.89 0 0 1 17.91-21.7 20.4 20.4 0 0 1 7.87.88z"/><path d="m2501.72 2251.22c-16.34 14.25-33 28-49.68 41.59-8.33 6.85-16.74 13.55-25.08 20.34l-25.16 20.15q-50.39 40.11-100.68 79.63c-33.36 26.45-66.68 52.85-98.4 79.83l-11.86 10.12-11.51 10.2-5.75 5.1-5.49 5.13-5.5 5.13c-1.82 1.71-3.69 3.41-5.41 5.13-3.47 3.42-6.84 6.77-9.9 10s-5.83 6.46-7.94 9.19c-1 1.35-1.92 2.57-2.46 3.41s-.7 1.3-.31.42c0-.06.14-.29.2-.46l.22-.6c.1-.29.2-.58.28-.87l.06-.23.09-.31.17-.65.14-.65.18-.84c.12-.62.18-1.15.26-1.86a21.51 21.51 0 0 0 .17-2.4v-1.43c0-.5 0-1-.05-1.51-.08-.91-.18-2.28-.39-3.44-.1-.61-.22-1.16-.36-1.81s-.3-1.36-.49-2-.41-1.33-.65-2-.49-1.38-.78-2.06a37.87 37.87 0 0 0 -2-4 35.11 35.11 0 0 0 -5.07-6.7c-.44-.45-.85-.86-1.29-1.27s-.94-.83-1.31-1.15-.8-.67-1.22-1l-1.17-.85a27.19 27.19 0 0 0 -6.59-3.41 15.7 15.7 0 0 0 -2.51-.69c-.38-.06-.37-.05-.16 0s.6.05 1.15.06a74 74 0 0 0 10-.65c4.06-.47 8.5-1.16 13.06-2s9.29-1.84 14.09-2.91 9.67-2.22 14.7-3.46l3.81-.95 3.59-.94 7.19-1.86q14.43-3.91 28.94-8.54c9.68-3 19.38-6.39 29.1-9.75l14.57-5.24c4.86-1.76 9.71-3.66 14.57-5.48l7.29-2.75 7.28-2.87 14.58-5.74 14.56-5.95c4.85-2 9.75-3.89 14.58-6 38.82-16.27 77.62-33.53 116.53-51.05l58.46-26.51 29.4-13.21c9.83-4.36 19.67-8.75 29.67-12.89l.35-.14a16.82 16.82 0 0 1 16.85 28.75 1472.22 1472.22 0 0 1 -219 143.12c-4.81 2.63-9.76 5.11-14.66 7.62l-14.76 7.51-15 7.21-7.49 3.6-7.6 3.46c-5.08 2.27-10.11 4.61-15.24 6.84l-15.45 6.56c-10.39 4.27-20.85 8.42-31.54 12.27s-21.54 7.49-32.57 10.91c-11.34 3.36-21.69 6.21-33.13 9.05-5.67 1.38-11.47 2.67-17.45 3.86s-12.17 2.27-18.79 3.12a157.6 157.6 0 0 1 -22.2 1.34c-2.14 0-4.45-.15-6.91-.36s-5.13-.53-8.15-1.09a68.85 68.85 0 0 1 -10.3-2.71 57.59 57.59 0 0 1 -13.81-7l-1-.67-1-.76c-.69-.53-1.36-1.06-2-1.61s-1.39-1.2-2.06-1.82-1.34-1.27-2-2a51.62 51.62 0 0 1 -7.53-9.77 50.19 50.19 0 0 1 -2.88-5.78c-.42-1-.83-2-1.17-3s-.64-2-.92-2.95-.54-2-.77-3-.37-1.86-.53-2.81a49.57 49.57 0 0 1 -.61-5.43q-.08-1.26-.09-2.52v-1.26c0-.44 0-.83 0-1.18.06-1.47.16-2.94.31-4.41s.35-2.57.57-3.85c.11-.61.23-1.32.35-1.84l.38-1.63.41-1.62.22-.81.21-.7c.29-.93.59-1.87.9-2.79.16-.49.31-.88.46-1.28l.46-1.21c.31-.79.65-1.67 1-2.33a89 89 0 0 1 7.48-13.67c2.41-3.66 4.73-6.77 7-9.63 4.58-5.69 9-10.5 13.37-15s8.67-8.7 13-12.7c2.15-2 4.3-3.88 6.45-5.8l6.45-5.71 6.45-5.7 6.5-5.39c4.35-3.57 8.68-7.19 13-10.72l13.2-10.28c35.1-27.2 71-51.91 107.56-75.59s73.66-46.06 111.34-67.49c18.86-10.68 37.82-21.15 57-31.24s38.49-20 58.17-29.24a16.14 16.14 0 0 1 17.48 26.76z"/><path d="m2624.59 2376a56.09 56.09 0 0 1 7.8 5.81 77.64 77.64 0 0 1 6.35 6.17 85.83 85.83 0 0 1 9.89 13.08 93.78 93.78 0 0 1 11.54 28.27 95.33 95.33 0 0 1 2.14 30.69 90.72 90.72 0 0 1 -3.09 16.42 86.7 86.7 0 0 1 -3 8.57 59.67 59.67 0 0 1 -4.42 8.95 19.51 19.51 0 0 1 -26.28 6.75 59 59 0 0 1 -8.18-5.7 83.75 83.75 0 0 1 -6.75-6.08 90.62 90.62 0 0 1 -10.62-12.88 95.16 95.16 0 0 1 -12.94-27.92 94.07 94.07 0 0 1 -3.53-30.33 85.81 85.81 0 0 1 2.36-16.23 78.3 78.3 0 0 1 2.59-8.47 56 56 0 0 1 4-8.85 23.15 23.15 0 0 1 31.59-8.56z"/></g><path d="m2685.56 2437.3 42.36-66.83-1.83 29.87-165.74-278a40.59 40.59 0 0 1 10.2-53l1.91-1.45 228.84-175-12.7 60.11-344-596.07-.13-.22a51.9 51.9 0 0 1 12.54-66.45q123.08-98.37 252.13-188.7t263.44-172q134.37-81.74 273.66-154.71t282.7-136.85l4-1.77a31.87 31.87 0 0 1 42.06 16.12 33.94 33.94 0 0 1 2 5.94l23.38 103.47a23.18 23.18 0 0 1 -43.44 15.24l-46.48-95.36 48 20.33q-139.51 66.92-274.46 142.48t-264.68 159.55q-129.72 83.87-253.66 176t-241.66 191.67l12.4-66.66 333.06 602.27.49.9a45.75 45.75 0 0 1 -13.2 59.19l-233.3 169 12.12-54.47 140.56 291.57 1.17 2.43a26.07 26.07 0 0 1 -3 27.44l-49 62.14a24.38 24.38 0 0 1 -39.73-28.14z" fill="#fde040"/><path d="m2748.39 2586.54c16.4-14.31 32.94-28.43 49.51-42.52l49.69-42.28 49.6-42.4q24.78-21.23 49.67-42.3l-11.15 46.96-15.82-29.23-15.65-29.31q-15.57-29.34-30.89-58.81t-30.23-59.13l-7.46-14.83-7.39-14.87q-7.41-14.85-14.71-29.76a45.26 45.26 0 0 1 20.69-60.55l.24-.11.77-.37 73-34.78 36.44-17.49 36.39-17.6 36.39-17.59 36.35-17.68 72.67-35.43-26 60.3-39.05-111.91-19.36-56-9.61-28-9.55-28q-19.07-56.1-37.59-112.4l-9.26-28.14-9.18-28.31-18.27-56.37-.22-.69a52 52 0 0 1 24.06-61.38c52-29.08 105.08-56.13 159.28-80.75q40.64-18.49 82-35.33t83.41-31.71q84-30.13 170.33-52.74c28.73-7.59 57.64-14.44 86.65-20.77s58.14-12.08 87.38-17.11l-35.91 45.85c-1.4-42.86-3.37-85.71-5.67-128.55s-5.11-85.66-8.41-128.46-7-85.58-11.2-128.32c-2-21.38-4.75-42.67-5.76-64.2-.55-10.76-.79-21.57-.65-32.44.11-5.44.24-10.89.58-16.37s.73-11 1.53-16.52v-.13a24 24 0 0 1 27.12-20.33 24.21 24.21 0 0 1 18.42 13.8c2.33 5.14 4.3 10.34 6.16 15.56s3.53 10.46 5.13 15.72c3.15 10.53 5.82 21.13 8.16 31.78 4.74 21.3 7.5 42.87 10.74 64.38q9.42 64.58 17.33 129.4t14.13 129.84q6.28 65 10.87 130.21a43.3 43.3 0 0 1 -34.09 45.45l-1.8.38c-27.84 6-55.57 12.34-83.14 19.32s-55 14.54-82.26 22.55c-54.54 16-108.36 34.33-161.41 54.54s-105.26 42.59-156.48 67-101.48 50.75-150.56 79.14l23.85-62.06 19 56.14 9.45 28.08 9.35 28.09q18.69 56.24 36.91 112.63l9.07 28.2 9 28.23 17.89 56.5 35.45 113.11.47 1.5a48.56 48.56 0 0 1 -26.45 58.8l-73.74 33.03-36.87 16.57-36.82 16.67-36.83 16.66-36.78 16.76-73.46 33.74 21.69-61q7.14 15 14.18 30l7.05 15 7 15.07q14 30.11 27.54 60.43t26.88 60.75l13.23 30.48 13.07 30.55 1.42 3.32a35.87 35.87 0 0 1 -12.58 43.59q-26.82 18.56-53.77 37l-53.84 36.86-53.76 37q-26.86 18.51-53.93 36.75a24.39 24.39 0 0 1 -29.61-38.65z" fill="#fde040"/></g></svg>