<svg xmlns="http://www.w3.org/2000/svg" viewBox="0 0 1548.86 1611.74"><defs><style>.cls-1{fill:#030303;}.cls-2{fill:#05a1d8;}.cls-3{fill:#050505;}.cls-4{fill:#060606;}.cls-5{fill:#050404;}.cls-6{fill:#070707;}</style></defs><g id="Layer_2" data-name="Layer 2"><g id="Layer_1-2" data-name="Layer 1"><path class="cls-1" d="M639.63,59c-22,.44-40.83,1.32-59.56,3.77A333.58,333.58,0,0,0,438.51,115.6a229.9,229.9,0,0,0-37.9,30.81A159.62,159.62,0,0,0,367,196.2C362,208,357.61,220,353.37,232c-6.67,19-14,37.76-23.15,55.71-7.88,15.38-16.63,30.25-26,44.77-2.43,3.75-4.77,7.58-6.94,11.48a116.48,116.48,0,0,0-14.49,68.38,146.93,146.93,0,0,0,12.32,46.11,214.77,214.77,0,0,0,28.81,47.4A320.25,320.25,0,0,0,430.1,592.6c2.56,1.31,5.2,2.48,7.69,3.91a10.28,10.28,0,0,1,4.91,10.64,16.63,16.63,0,0,1-1.29,4.6c-2.86,5.76-8.27,9.11-15,6.61a272.19,272.19,0,0,1-34.95-15.68c-27.56-14.86-51.77-34.07-73.35-56.66-24.22-25.35-44.39-53.69-61.6-84.17a165,165,0,0,1-14.12-32.47c-8.7-28.2-7.52-56.13,2.61-83.76A189.68,189.68,0,0,1,258.4,317c4.12-7.22,8.26-14.45,12.88-21.35,13.42-20,23.85-41.55,32.39-64,6.47-17,12.69-34.13,19.1-51.18q6.92-18.39,15.23-36.21c9.85-21.2,23.69-39.38,40.82-55.16a262.84,262.84,0,0,1,41.51-30.87c22.74-13.84,46.89-24.7,71.76-34.06A366.48,366.48,0,0,1,564.29,5.3,436.77,436.77,0,0,1,609.12.64a546.58,546.58,0,0,1,61.39.51c10.21.6,20.38,1.79,30.54,3.06,13,1.63,26,3.72,38.78,6.38C777.27,18.35,813.31,30.17,846.72,49,891,74,927.27,107.59,954.66,150.54c16.67,26.14,27.84,54.55,34.43,84.81a360.07,360.07,0,0,1,8,59.83c.29,6.07.83,12.13,1,18.21a343.56,343.56,0,0,1-3,55.51,347.36,347.36,0,0,1-40.71,125A289.28,289.28,0,0,1,903,561.71c-3,2.9-6.07,5.69-9.17,8.46A26.16,26.16,0,0,1,890,573c-6.84,4.13-13.51,1.2-17-3.63-3.23-4.53-3.86-9.48-1.15-14.46a58.76,58.76,0,0,1,4.86-7.11,418.59,418.59,0,0,0,34.68-54c15.34-28.58,27.11-58.52,34.39-90.18a286.43,286.43,0,0,0,7.39-75.2c-1.67-45.29-14-87.5-36.6-126.75-4.14-7.2-8.38-14.36-13-21.29-20.26-30.61-45.93-55.56-77.67-74.25-28.34-16.68-58.63-28.29-90.51-35.95A386.09,386.09,0,0,0,677.76,61C664.06,59.8,650.29,59.51,639.63,59Z"/><path class="cls-2" d="M1251,1482.92a423,423,0,0,1-51.53-3.12,451.51,451.51,0,0,1-88.85-19.41c-6.69-2.17-13.52-3.89-20.18-6.15-6.34-2.17-12.55-4.73-18.78-7.21a23.1,23.1,0,0,1-8.63-5.93,28.81,28.81,0,0,1-3.38-4.62,6.69,6.69,0,0,1,.42-8.07c2.12-2.72,4.84-4.11,8.38-3.44a12,12,0,0,1,1.85.49c16.85,6.21,34.3,10.17,51.79,14q12.65,2.76,25.26,5.66a232.74,232.74,0,0,0,40.77,5.82c8,.4,16,1.13,24,1,15.35-.18,30.67-1.11,46-2.67q23.88-2.44,47.51-6.48c33.62-5.79,65.86-15.8,96-32.13a223.46,223.46,0,0,0,61.49-48.45c23.86-27,39-58.35,45.85-93.64a174.61,174.61,0,0,0,2-55.43c-7.07-56.07-34.33-99.65-82.41-129.75-20.56-12.87-43-20.9-67-25a189.41,189.41,0,0,0-56.39-1.21,178.23,178.23,0,0,0-50.59,14.23c-32.23,14.49-58.58,36.25-79.82,64.36a271.85,271.85,0,0,0-22.15,34.76c-6.84,12.66-13.76,25.28-21.57,37.39-8,12.4-16.77,24.18-27.46,34.43-12.65,12.15-27.09,21.34-44,26.4a36.66,36.66,0,0,1-3.68,1c-5.61,1.06-10-.89-13.37-5.44a14.56,14.56,0,0,1-2.82-7.06,10,10,0,0,1,3.79-9.36,20,20,0,0,1,4.11-2.43c15.81-7.26,28.15-18.65,38.64-32.28a198.68,198.68,0,0,0,17.44-27.52c5.3-9.86,10.44-19.8,15.74-29.66,7.56-14.1,15.45-28,25-40.92,33.73-45.73,78.06-75.94,133.09-90.13a205.48,205.48,0,0,1,65.68-6c46.9,3.25,89.26,18.86,126.16,48.2,37.57,29.87,62.36,68.22,73.77,114.9a205.53,205.53,0,0,1,5.09,65.71c-4.31,53.19-24.45,99.58-59.46,139.58-19.35,22.1-42.22,40-67.87,54.29a313.42,313.42,0,0,1-85.89,32.2,352.5,352.5,0,0,1-41.63,6.77C1278.66,1482.12,1264,1483.43,1251,1482.92Z"/><path class="cls-3" d="M1154,942.64c.5,14.12-.65,31.06-2.14,47.93-6.44,72.88-26.38,141.76-62,205.89-.93,1.67-1.83,3.37-2.85,5a22.14,22.14,0,0,1-2.27,3.07,10.76,10.76,0,0,1-12.24,2.82c-8.23-3-10.81-10.94-7.79-17.86.64-1.46,1.42-2.86,2.13-4.29a429.35,429.35,0,0,0,31.58-87.22,616.66,616.66,0,0,0,11.94-62.1c4.45-31.11,6-62.36,5.76-93.75-.13-17.93-.94-35.82-2.68-53.65-4.86-49.78-14.39-98.64-30.52-146.05-14.84-43.61-36-83.92-64.4-120.28a344.53,344.53,0,0,0-70.91-68.36,64.47,64.47,0,0,1-6.11-4.63c-5.37-4.9-5.57-12.56-.61-18a11.77,11.77,0,0,1,14-3c2.63,1.14,5.17,2.52,7.69,3.9a292.58,292.58,0,0,1,63.66,47.4c24.28,23.57,44.18,50.47,60.82,79.86,18,31.84,31.68,65.53,41.91,100.62a572.21,572.21,0,0,1,15.85,71c2.49,15.79,4.56,31.63,6,47.56C1152.63,898.88,1154,919.29,1154,942.64Z"/><path class="cls-4" d="M783.58,1565c2.92-.52,5.75-.91,8.53-1.53,11.86-2.64,23.8-4.84,35.85-6.42,16.24-2.13,31.87-.18,46.86,6.57,7.59,3.42,14.88,7.39,22.13,11.45a81.38,81.38,0,0,0,13.88,6.44,22.7,22.7,0,0,0,19.4-1.76c2.76-1.58,5.44-3.35,8-5.2,2.34-1.66,4.55-3.52,6.76-5.36,12.08-10.1,26.16-15.87,41.43-18.91a118.89,118.89,0,0,1,52.31,1.27,4.48,4.48,0,0,0,3.93-.34,104,104,0,0,0,.79-19.8c-.63-10.28-3-20.22-5.39-30.17-1.85-7.77-3.83-15.52-5.46-23.33a186.13,186.13,0,0,1-1.93-63,69,69,0,0,1,2.57-13.16,14.13,14.13,0,0,1,4-6.42c1.32-1.14,4.22-.52,5,1.06a16.14,16.14,0,0,1,1.22,6.54c.26,6.07.49,12.15.82,18.21,1.14,21.24,5.8,41.75,12.81,61.76,3.17,9,6.51,18,9.65,27.08a135.91,135.91,0,0,1,5.92,24.18,61.73,61.73,0,0,1-1.14,25.7,43.84,43.84,0,0,1-5.26,12.29c-3.91,6.14-9.4,9.41-16.78,9.28a49.57,49.57,0,0,1-12.35-1.48c-4.3-1.19-8.71-2-13.07-3-10.58-2.34-21-1-31.37,1.36a76.76,76.76,0,0,0-28.56,13.08c-5.18,3.75-10.35,7.52-15.6,11.16a51.56,51.56,0,0,1-18.32,8,45.74,45.74,0,0,1-18.09.3,82,82,0,0,1-18.33-5.49c-4.1-1.77-8.15-3.68-12.17-5.64s-8-4-11.95-6.12a66,66,0,0,0-33.31-7.42,113.3,113.3,0,0,0-24.65,3.47c-4.33,1.1-8.73,2-13,3.28-4.65,1.4-9.42,1.77-14.18,2.37a30.53,30.53,0,0,1-13.27-1.4c-9-2.89-14.17-9.55-16.39-18.5a56.8,56.8,0,0,1-1.65-15.23c.2-6.71.16-13.43.24-20.15.33-26.13-3.79-51.57-11.4-76.53-5.21-17.13-11.25-34-17-50.9-5-14.83-9.65-29.77-13.32-45a197.16,197.16,0,0,1-4.62-65.76c5.08-51.68,25.24-96.7,60.93-134.62a62.32,62.32,0,0,1,4.8-4.68,12,12,0,0,1,15.07-.31c3.81,2.92,5.82,6.69,5.54,11.58a10.61,10.61,0,0,1-2.19,6.23c-1.39,1.75-2.88,3.42-4.37,5.09-23.88,26.91-39.17,58.18-47,93.14a203.15,203.15,0,0,0-3.95,61.08c1.11,13.74,4.29,27.12,8.44,40.27,3.94,12.5,8.61,24.74,13.32,37a400,400,0,0,1,17,53.87,343.85,343.85,0,0,1,7.33,44.43,303.18,303.18,0,0,1,.9,47A13.64,13.64,0,0,0,783.58,1565Z"/><path class="cls-5" d="M299.81,971.34a341.14,341.14,0,0,0,2.22,49.83c7.72,68.79,31.48,131.41,73,187,40.47,54.18,92.67,92.93,155.49,117.6a384.61,384.61,0,0,0,68.07,19.41c14.78,2.84,29.68,4.5,44.64,5.92a295.61,295.61,0,0,0,43.11,1.18c1.27-.07,2.56,0,3.83.09a12.4,12.4,0,0,1,7,2.83,5.2,5.2,0,0,1,1.09,6.89,25.89,25.89,0,0,1-3.84,4.25A35.51,35.51,0,0,1,680.2,1374c-7.13,1.76-14.24,3.71-21.47,4.93-18,3-36.15,4.75-54.44,3.92a290.79,290.79,0,0,1-82.57-15.72,343.34,343.34,0,0,1-95-51.09c-50.88-38.48-90.69-86.14-118.37-143.73a378.87,378.87,0,0,1-30.18-91.65,389.33,389.33,0,0,1-6.84-93.52,325.41,325.41,0,0,1,5.06-45.73c.06-.31.1-.63.14-.95.84-8,9.23-11.1,14.95-9.64a19.74,19.74,0,0,1,5.3,2.15c3.21,1.93,5.17,4.81,5,8.69-.19,4.79-.57,9.57-.9,14.36C300.56,961.14,300.18,966.24,299.81,971.34Z"/><path class="cls-3" d="M161.61,945.89c-10.46.31-26.11-.74-41.68-2.52a439.26,439.26,0,0,1-68.68-13,121.94,121.94,0,0,1-20.63-7.65,68.24,68.24,0,0,1-14.5-9.28A45.12,45.12,0,0,1,1.53,891.42a37.79,37.79,0,0,1-.39-19.88,58.73,58.73,0,0,1,5.63-14.22c2.44-4.49,5.06-8.88,7.6-13.32,1.58-2.77,3.21-5.52,4.7-8.35a22.12,22.12,0,0,0,1.46-16.78A70.83,70.83,0,0,0,16.77,809c-1.59-3.49-3.53-6.81-5.25-10.23-1.58-3.14-3.26-6.24-4.59-9.49-5.53-13.49-3.87-26.27,4.24-38.26a51.67,51.67,0,0,1,18.56-16.31,65.84,65.84,0,0,1,28.38-8c6.06-.33,12.15-.23,18.22-.48,4.79-.19,9.57-.61,14.35-1,8.1-.58,15.62-3.24,22.81-6.81,4.29-2.13,8.41-4.61,12.51-7.09,12.84-7.78,25.61-15.69,38.46-23.47C218,655.56,275,630.73,334.54,611.67c10-3.21,20.2-6,30.29-9a19,19,0,0,1,8.51-.95,11.48,11.48,0,0,1,4.44,1.55,13.36,13.36,0,0,1,3.87,18.56,11.91,11.91,0,0,1-6,4.61c-2.69,1-5.49,1.71-8.22,2.58a882.31,882.31,0,0,0-157.58,67c-21.31,11.68-41.83,24.67-62.31,37.73-6.46,4.13-13,8.19-19.7,11.88-9,4.94-18.6,8.58-28.88,9.79-7.29.85-14.66,1.17-22,1.58-4.79.27-9.59.34-14.38.4a47.12,47.12,0,0,0-12.27,2.06,25.78,25.78,0,0,0-10.87,5.85c-4.12,3.85-5.71,8.43-3.58,13.87,1.17,3,2.52,5.86,3.92,8.73,2.53,5.16,5.3,10.21,7.7,15.43a63.62,63.62,0,0,1,5.4,18.32,40,40,0,0,1-4.66,25c-1.83,3.36-4.07,6.49-6.1,9.74-2.2,3.52-4.46,7-6.53,10.61A35.44,35.44,0,0,0,32,876.83c-.94,4.09.26,7.6,2.77,10.73A25.88,25.88,0,0,0,43,893.93,65.52,65.52,0,0,0,56.45,899C67.82,902.25,79.38,904.75,91,907a383.14,383.14,0,0,0,38,5.34c24.55,2.15,49.15,3.26,73.79,1.51,3.51-.25,7-.49,10.54-.64,12.78-.58,25.5-1.92,38.19-3.53,4.44-.56,8.89-1.09,13.35-1.41,4.92-.36,8.57,2.19,10.34,6.88.22.6.47,1.19.64,1.81a13.07,13.07,0,0,1-8.46,16.1c-3.33,1.1-6.75,2-10.18,2.72a420.36,420.36,0,0,1-52,8.44C192.4,945.4,179.64,945.72,161.61,945.89Z"/><path class="cls-4" d="M173.1,1418.9c1.27,2,3.26,2.43,4.91,3.36a27.67,27.67,0,0,1,12.38,14.17c2.64,6.62,4.06,13.45,2.84,20.64a103.9,103.9,0,0,1-3.71,15.85,36,36,0,0,0-1,4.63c-.16.77.89,1.87,1.71,1.81A25.47,25.47,0,0,0,194,1479c6.9-1.58,13.94-2,21-2.27a95.24,95.24,0,0,1,13.4.38c9.1.85,16.28,5.22,21.72,12.55a42.8,42.8,0,0,1,5.45,10.09c.94,2.37,1.72,4.82,2.76,7.14a33.26,33.26,0,0,0,2.86,5,6.33,6.33,0,0,0,6.67,2.78,37,37,0,0,0,7.32-2.21c4.72-1.93,9.48-3.85,14-6.18,22.83-11.77,46.89-20.25,71.56-27.11q13.84-3.86,27.76-7.46a144.87,144.87,0,0,0,18.21-5.91c13.54-5.53,24-14.52,30.73-27.59,3.63-7.09,6.89-14.4,10.1-21.7,3.34-7.61,6.35-15.35,9.6-23a129.66,129.66,0,0,1,10.65-20.36,93.19,93.19,0,0,1,7-9.1,16,16,0,0,1,3.89-2.7,3,3,0,0,1,3.47.7,6.56,6.56,0,0,1,2,4.23,23.93,23.93,0,0,1-1,8.53c-2.43,8.94-4.62,17.94-7.18,26.84-4.24,14.75-7.5,29.74-11,44.68-.58,2.49-1.31,5-1.7,7.47-1.14,7.26-4.9,13.1-9.75,18.35a81.82,81.82,0,0,1-22.07,16.72,123.23,123.23,0,0,1-24,9.54c-8.59,2.46-17.28,4.59-25.95,6.78A456.42,456.42,0,0,0,297.07,1536a126.93,126.93,0,0,1-18.62,7.56,46.66,46.66,0,0,1-14.2,1.92c-11.33-.22-20.24-5.24-26.93-14.29-3.64-4.92-6.11-10.47-8.36-16.12-.71-1.78-1.29-3.61-2.08-5.35a4.84,4.84,0,0,0-4.48-3.08,85.38,85.38,0,0,0-8.61.38,245.34,245.34,0,0,0-25.57,4,30.32,30.32,0,0,1-14.23-.56,20.38,20.38,0,0,1-11.53-8.09,25.63,25.63,0,0,1-5.05-14.25,46.65,46.65,0,0,1,1.39-14.26c1.31-4.61,2.42-9.28,3.5-13.94.57-2.49,1-5,1.3-7.54s-.44-3.67-2.81-4.08c-3.14-.54-6.4-.6-9.46-1.42-8.54-2.3-14.83-7.2-17.4-16.08-1.24-4.28-.13-8.33,1.54-12.11a53.09,53.09,0,0,1,5.81-9.89c2.83-3.85,6-7.45,9.23-11s6.49-7.08,9.92-10.43c9.74-9.48,15.15-21.23,18.23-34.21a162.83,162.83,0,0,0,3.82-26.56c.74-10.85,1.17-21.72,2.14-32.55a239.35,239.35,0,0,1,12.14-56.09,234,234,0,0,1,20.5-44.28,134.59,134.59,0,0,1,28.14-33.74,106.37,106.37,0,0,1,23.19-15.22,59.32,59.32,0,0,1,6.25-2.34,3.76,3.76,0,0,1,3.32,1.46,3.49,3.49,0,0,1,.17,3.65,15,15,0,0,1-3,3.68c-28.87,25.06-45.55,57.17-54.26,93.86a312.76,312.76,0,0,0-6.18,35.88c-1.69,14.63-2.61,29.3-3.54,44A220.93,220.93,0,0,1,206,1362.8a102.33,102.33,0,0,1-20.69,41.71c-3.25,4-6.74,7.7-10.09,11.57C174.45,1417,173.77,1418,173.1,1418.9Z"/><path class="cls-6" d="M965.64,1071.46c.22-26.68,1.84-47.41,3.54-68.14,1.08-13.07,1.7-26.18,2.9-39.24,1.65-17.86,1.8-35.79,2.55-53.69a356.81,356.81,0,0,0-1.21-45.07A181.47,181.47,0,0,0,965,825.05c-4.49-14-10-27.63-15.5-41.26-4.66-11.56-9.26-23.14-13.1-35-4.65-14.35-8-28.93-9.11-44-.74-10.21-2-20.38-2.69-30.59-1.47-20.19-.81-40.28,3-60.21a163.41,163.41,0,0,1,6.13-22.16,20.88,20.88,0,0,1,2.81-5c1.12-1.6,3.41-1.78,5.19-.81a6.92,6.92,0,0,1,3.49,4.34,15.56,15.56,0,0,1,.59,6.64c-.36,2.53-.63,5.08-1.14,7.59a167.5,167.5,0,0,0-2.93,39.14,291.39,291.39,0,0,0,4.57,43.85,303.13,303.13,0,0,0,17.05,58.82c5.53,13.61,11.5,27.05,17.3,40.55,6.69,15.56,13.35,31.11,18.53,47.28a190.68,190.68,0,0,1,9.2,55.61,302,302,0,0,1-3.45,49.72c-2.9,19.3-5.15,38.67-6.56,58.15-.67,9.24-1.81,18.46-2.81,27.68-3.14,29-4.27,58.09-2.27,87.21a253.11,253.11,0,0,0,9.07,52.85c1.77,6.14,3.55,12.28,5.29,18.42a155.9,155.9,0,0,0,10.56,27.73,15.15,15.15,0,0,1,2,7.3,5.38,5.38,0,0,1-4.71,5.19,9.11,9.11,0,0,1-8.59-3.21,24.79,24.79,0,0,1-3.2-4.76c-7.3-13.85-14.58-27.72-20.05-42.43a287.58,287.58,0,0,1-16.25-66.91A316.42,316.42,0,0,1,965.64,1071.46Z"/></g></g></svg>